<svg width="24" height="24" viewBox="0 0 24 24" fill="none" xmlns="http://www.w3.org/2000/svg">
<path d="M2.35926 7.23438L11.1718 11.4897C11.4012 11.5991 11.7075 11.6563 12.0106 11.6563C12.3137 11.6563 12.62 11.5991 12.849 11.4897L21.6615 7.23438C22.1249 7.01117 22.1249 6.64599 21.6615 6.42188L12.849 2.16652C12.62 2.05714 12.3133 2 12.0106 2C11.7079 2 11.4012 2.05714 11.1718 2.16652L2.35926 6.42188C1.89587 6.64599 1.89587 7.01027 2.35926 7.23438Z" fill="white"/>
<path d="M21.6614 11.5937C21.6614 11.5937 20.052 10.8178 19.8386 10.7134C19.6252 10.6089 19.5676 10.6147 19.3435 10.7187C19.1194 10.8228 12.8435 13.854 12.8435 13.854C12.579 13.9682 12.2933 14.0251 12.0051 14.021C11.7029 14.021 11.3958 13.9634 11.1667 13.854C11.1667 13.854 5.05737 10.9076 4.77076 10.7656C4.46049 10.6161 4.37121 10.6161 4.08862 10.75L2.34754 11.5884C1.88415 11.8116 1.88415 12.1772 2.34754 12.4009L11.1614 16.6562C11.3904 16.7656 11.6971 16.8228 11.9998 16.8228C12.3025 16.8228 12.6092 16.7656 12.8386 16.6562L21.6511 12.4018C22.1248 12.1821 22.1248 11.8178 21.6614 11.5937Z" fill="white"/>
<path d="M21.6615 16.7656C21.6615 16.7656 20.0521 15.9897 19.8387 15.8839C19.6253 15.7781 19.5677 15.7853 19.3436 15.8893C19.1195 15.9933 12.849 19.0313 12.849 19.0313C12.5844 19.1453 12.2986 19.2021 12.0106 19.1978C11.7083 19.1978 11.4012 19.1406 11.1717 19.0313C11.1717 19.0313 5.06234 16.0848 4.77618 15.9429C4.46368 15.7915 4.3744 15.7915 4.09359 15.9272L2.35252 16.7656C1.88868 16.9888 1.88868 17.354 2.35252 17.5781L11.165 21.8335C11.394 21.9478 11.7007 22 12.0034 22C12.3061 22 12.6128 21.9429 12.8418 21.8335L21.6561 17.5804C22.1249 17.354 22.1249 16.9897 21.6615 16.7656Z" fill="white"/>
</svg>
