<svg width="371" height="177" viewBox="0 0 371 177" fill="none" xmlns="http://www.w3.org/2000/svg">
<path d="M89.56 2.2H97.36C98.384 2.2 99.304 2.36 100.12 2.68C100.952 2.984 101.656 3.4 102.232 3.928C102.824 4.456 103.28 5.08 103.6 5.8C103.92 6.504 104.08 7.264 104.08 8.08C104.08 8.896 103.92 9.664 103.6 10.384C103.28 11.088 102.824 11.704 102.232 12.232C101.656 12.76 100.952 13.184 100.12 13.504C99.304 13.808 98.384 13.96 97.36 13.96H93.16V19H89.56V2.2ZM97.24 10.6C98.264 10.6 99.04 10.36 99.568 9.88C100.096 9.4 100.36 8.8 100.36 8.08C100.36 7.36 100.096 6.76 99.568 6.28C99.04 5.8 98.264 5.56 97.24 5.56H93.16V10.6H97.24ZM111.653 19.36C110.725 19.36 109.853 19.192 109.037 18.856C108.237 18.52 107.541 18.064 106.949 17.488C106.357 16.896 105.893 16.208 105.557 15.424C105.221 14.624 105.053 13.776 105.053 12.88C105.053 11.984 105.221 11.144 105.557 10.36C105.893 9.56 106.357 8.872 106.949 8.296C107.541 7.704 108.237 7.24 109.037 6.904C109.853 6.568 110.725 6.4 111.653 6.4C112.613 6.4 113.485 6.568 114.269 6.904C115.069 7.24 115.757 7.704 116.333 8.296C116.909 8.888 117.349 9.576 117.653 10.36C117.973 11.144 118.133 11.984 118.133 12.88V13.6H108.533C108.597 13.984 108.717 14.352 108.893 14.704C109.085 15.056 109.317 15.368 109.589 15.64C109.877 15.896 110.197 16.104 110.549 16.264C110.901 16.408 111.269 16.48 111.653 16.48C112.197 16.48 112.637 16.408 112.973 16.264C113.325 16.104 113.613 15.936 113.837 15.76C114.077 15.552 114.269 15.312 114.413 15.04H118.013C117.757 15.84 117.357 16.56 116.813 17.2C116.573 17.472 116.293 17.736 115.973 17.992C115.653 18.248 115.285 18.48 114.869 18.688C114.453 18.896 113.973 19.056 113.429 19.168C112.901 19.296 112.309 19.36 111.653 19.36ZM114.533 11.56C114.469 11.256 114.357 10.968 114.197 10.696C114.037 10.424 113.829 10.184 113.573 9.976C113.333 9.768 113.045 9.6 112.709 9.472C112.389 9.344 112.037 9.28 111.653 9.28C110.869 9.28 110.213 9.512 109.685 9.976C109.173 10.424 108.829 10.952 108.653 11.56H114.533ZM120.164 6.76H123.524V11.32H124.964L128.204 6.76H131.924L127.964 12.4L132.284 19H128.444L125.324 14.2H123.524V19H120.164V6.76ZM135.396 6.76H141.876L145.116 19H141.756L139.236 9.64H138.036L135.516 19H132.156L135.396 6.76ZM151.477 19.36C150.693 19.36 149.957 19.208 149.269 18.904C148.597 18.6 148.005 18.168 147.493 17.608C146.981 17.048 146.573 16.368 146.269 15.568C145.981 14.768 145.837 13.872 145.837 12.88C145.837 11.888 145.981 10.992 146.269 10.192C146.573 9.392 146.981 8.712 147.493 8.152C148.005 7.592 148.597 7.16 149.269 6.856C149.957 6.552 150.693 6.4 151.477 6.4C152.149 6.4 152.717 6.504 153.181 6.712C153.661 6.904 154.061 7.12 154.381 7.36C154.749 7.648 155.061 7.968 155.317 8.32H155.437V6.76H158.797V19H155.437V17.44H155.317C155.061 17.792 154.749 18.112 154.381 18.4C154.061 18.64 153.661 18.856 153.181 19.048C152.717 19.256 152.149 19.36 151.477 19.36ZM152.317 16.48C153.229 16.48 153.973 16.168 154.549 15.544C155.141 14.92 155.437 14.032 155.437 12.88C155.437 11.728 155.141 10.84 154.549 10.216C153.973 9.592 153.229 9.28 152.317 9.28C151.469 9.28 150.757 9.592 150.181 10.216C149.605 10.84 149.317 11.728 149.317 12.88C149.317 14.032 149.605 14.92 150.181 15.544C150.757 16.168 151.469 16.48 152.317 16.48ZM161.437 6.76H165.997L168.877 13.36H169.237L172.117 6.76H176.677V19H173.317V12.88L173.437 10.72H173.317L170.677 16.72H167.437L164.797 10.72H164.677L164.797 12.88V19H161.437V6.76ZM185.32 19.36C184.36 19.36 183.464 19.192 182.632 18.856C181.816 18.52 181.104 18.064 180.496 17.488C179.904 16.896 179.44 16.208 179.104 15.424C178.768 14.624 178.6 13.776 178.6 12.88C178.6 11.984 178.768 11.144 179.104 10.36C179.44 9.56 179.904 8.872 180.496 8.296C181.104 7.704 181.816 7.24 182.632 6.904C183.464 6.568 184.36 6.4 185.32 6.4C186.28 6.4 187.168 6.568 187.984 6.904C188.8 7.24 189.504 7.704 190.096 8.296C190.704 8.872 191.176 9.56 191.512 10.36C191.864 11.144 192.04 11.984 192.04 12.88C192.04 13.776 191.864 14.624 191.512 15.424C191.176 16.208 190.704 16.896 190.096 17.488C189.504 18.064 188.8 18.52 187.984 18.856C187.168 19.192 186.28 19.36 185.32 19.36ZM185.32 16.48C185.768 16.48 186.184 16.392 186.568 16.216C186.968 16.04 187.312 15.8 187.6 15.496C187.904 15.176 188.136 14.8 188.296 14.368C188.472 13.92 188.56 13.424 188.56 12.88C188.56 12.336 188.472 11.848 188.296 11.416C188.136 10.968 187.904 10.592 187.6 10.288C187.312 9.968 186.968 9.72 186.568 9.544C186.184 9.368 185.768 9.28 185.32 9.28C184.872 9.28 184.448 9.368 184.048 9.544C183.664 9.72 183.32 9.968 183.016 10.288C182.728 10.592 182.496 10.968 182.32 11.416C182.16 11.848 182.08 12.336 182.08 12.88C182.08 13.424 182.16 13.92 182.32 14.368C182.496 14.8 182.728 15.176 183.016 15.496C183.32 15.8 183.664 16.04 184.048 16.216C184.448 16.392 184.872 16.48 185.32 16.48ZM192.768 16.12H194.088L196.608 6.76H203.088L205.608 16.12H206.928V21.52H203.808V19H195.888V21.52H192.768V16.12ZM202.248 16.12L200.448 9.64H199.248L197.448 16.12H202.248ZM213.399 19.36C212.615 19.36 211.879 19.208 211.191 18.904C210.519 18.6 209.927 18.168 209.415 17.608C208.903 17.048 208.495 16.368 208.191 15.568C207.903 14.768 207.759 13.872 207.759 12.88C207.759 11.888 207.903 10.992 208.191 10.192C208.495 9.392 208.903 8.712 209.415 8.152C209.927 7.592 210.519 7.16 211.191 6.856C211.879 6.552 212.615 6.4 213.399 6.4C214.071 6.4 214.639 6.504 215.103 6.712C215.583 6.904 215.983 7.12 216.303 7.36C216.671 7.648 216.983 7.968 217.239 8.32H217.359V6.76H220.719V19H217.359V17.44H217.239C216.983 17.792 216.671 18.112 216.303 18.4C215.983 18.64 215.583 18.856 215.103 19.048C214.639 19.256 214.071 19.36 213.399 19.36ZM214.239 16.48C215.151 16.48 215.895 16.168 216.471 15.544C217.063 14.92 217.359 14.032 217.359 12.88C217.359 11.728 217.063 10.84 216.471 10.216C215.895 9.592 215.151 9.28 214.239 9.28C213.391 9.28 212.679 9.592 212.103 10.216C211.527 10.84 211.239 11.728 211.239 12.88C211.239 14.032 211.527 14.92 212.103 15.544C212.679 16.168 213.391 16.48 214.239 16.48ZM226.239 9.64H222.159V6.76H233.679V9.64H229.599V19H226.239V9.64ZM241.005 19.36C240.077 19.36 239.205 19.192 238.389 18.856C237.589 18.52 236.893 18.064 236.301 17.488C235.709 16.896 235.245 16.208 234.909 15.424C234.573 14.624 234.405 13.776 234.405 12.88C234.405 11.984 234.573 11.144 234.909 10.36C235.245 9.56 235.709 8.872 236.301 8.296C236.893 7.704 237.589 7.24 238.389 6.904C239.205 6.568 240.077 6.4 241.005 6.4C241.965 6.4 242.837 6.568 243.621 6.904C244.421 7.24 245.109 7.704 245.685 8.296C246.261 8.888 246.701 9.576 247.005 10.36C247.325 11.144 247.485 11.984 247.485 12.88V13.6H237.885C237.949 13.984 238.069 14.352 238.245 14.704C238.437 15.056 238.669 15.368 238.941 15.64C239.229 15.896 239.549 16.104 239.901 16.264C240.253 16.408 240.621 16.48 241.005 16.48C241.549 16.48 241.989 16.408 242.325 16.264C242.677 16.104 242.965 15.936 243.189 15.76C243.429 15.552 243.621 15.312 243.765 15.04H247.365C247.109 15.84 246.709 16.56 246.165 17.2C245.925 17.472 245.645 17.736 245.325 17.992C245.005 18.248 244.637 18.48 244.221 18.688C243.805 18.896 243.325 19.056 242.781 19.168C242.253 19.296 241.661 19.36 241.005 19.36ZM243.885 11.56C243.821 11.256 243.709 10.968 243.549 10.696C243.389 10.424 243.181 10.184 242.925 9.976C242.685 9.768 242.397 9.6 242.061 9.472C241.741 9.344 241.389 9.28 241.005 9.28C240.221 9.28 239.565 9.512 239.037 9.976C238.525 10.424 238.181 10.952 238.005 11.56H243.885ZM251.435 6.76H257.915L261.155 19H257.795L255.275 9.64H254.075L251.555 19H248.195L251.435 6.76ZM262.476 6.76H265.836V10.6H268.596C269.348 10.6 270.028 10.712 270.636 10.936C271.244 11.16 271.756 11.464 272.172 11.848C272.604 12.232 272.932 12.68 273.156 13.192C273.396 13.688 273.516 14.224 273.516 14.8C273.516 15.376 273.396 15.92 273.156 16.432C272.932 16.928 272.604 17.368 272.172 17.752C271.756 18.136 271.244 18.44 270.636 18.664C270.028 18.888 269.348 19 268.596 19H262.476V6.76ZM268.356 16.24C268.9 16.24 269.316 16.104 269.604 15.832C269.892 15.56 270.036 15.216 270.036 14.8C270.036 14.384 269.892 14.04 269.604 13.768C269.316 13.496 268.9 13.36 268.356 13.36H265.836V16.24H268.356Z" fill="white"/>
<path d="M93.64 75.56H88.24V72.2H102.64V75.56H97.24V89H93.64V75.56ZM104.203 76.76H107.563V78.56H107.683C107.827 78.176 108.043 77.84 108.331 77.552C108.571 77.296 108.891 77.064 109.291 76.856C109.691 76.632 110.195 76.52 110.803 76.52H112.243V79.76H110.443C109.531 79.76 108.819 80.008 108.307 80.504C107.811 81 107.563 81.672 107.563 82.52V89H104.203V76.76ZM118.969 89.36C118.185 89.36 117.449 89.208 116.761 88.904C116.089 88.6 115.497 88.168 114.985 87.608C114.473 87.048 114.065 86.368 113.761 85.568C113.473 84.768 113.329 83.872 113.329 82.88C113.329 81.888 113.473 80.992 113.761 80.192C114.065 79.392 114.473 78.712 114.985 78.152C115.497 77.592 116.089 77.16 116.761 76.856C117.449 76.552 118.185 76.4 118.969 76.4C119.641 76.4 120.209 76.504 120.673 76.712C121.153 76.904 121.553 77.12 121.873 77.36C122.241 77.648 122.553 77.968 122.809 78.32H122.929V76.76H126.289V89H122.929V87.44H122.809C122.553 87.792 122.241 88.112 121.873 88.4C121.553 88.64 121.153 88.856 120.673 89.048C120.209 89.256 119.641 89.36 118.969 89.36ZM119.809 86.48C120.721 86.48 121.465 86.168 122.041 85.544C122.633 84.92 122.929 84.032 122.929 82.88C122.929 81.728 122.633 80.84 122.041 80.216C121.465 79.592 120.721 79.28 119.809 79.28C118.961 79.28 118.249 79.592 117.673 80.216C117.097 80.84 116.809 81.728 116.809 82.88C116.809 84.032 117.097 84.92 117.673 85.544C118.249 86.168 118.961 86.48 119.809 86.48ZM129.529 79.88H127.969V77H129.529V72.2H136.009V75.08H132.889V77H137.329V72.2H144.169V75.08H140.689V77H143.449V79.88H140.689V89H137.329V79.88H132.889V89H129.529V79.88ZM145.359 76.76H148.719V89H145.359V76.76ZM147.039 75.2C146.495 75.2 146.039 75.024 145.671 74.672C145.303 74.304 145.119 73.88 145.119 73.4C145.119 72.92 145.303 72.504 145.671 72.152C146.039 71.784 146.495 71.6 147.039 71.6C147.583 71.6 148.039 71.784 148.407 72.152C148.775 72.504 148.959 72.92 148.959 73.4C148.959 73.88 148.775 74.304 148.407 74.672C148.039 75.024 147.583 75.2 147.039 75.2ZM157.239 89.36C156.311 89.36 155.439 89.192 154.623 88.856C153.823 88.52 153.127 88.064 152.535 87.488C151.943 86.896 151.479 86.208 151.143 85.424C150.807 84.624 150.639 83.776 150.639 82.88C150.639 81.984 150.807 81.144 151.143 80.36C151.479 79.56 151.943 78.872 152.535 78.296C153.127 77.704 153.823 77.24 154.623 76.904C155.439 76.568 156.311 76.4 157.239 76.4C157.895 76.4 158.487 76.472 159.015 76.616C159.543 76.744 160.015 76.92 160.431 77.144C160.847 77.368 161.207 77.624 161.511 77.912C161.831 78.2 162.103 78.496 162.327 78.8C162.855 79.504 163.239 80.304 163.479 81.2H159.999C159.855 80.848 159.663 80.528 159.423 80.24C159.199 80 158.911 79.784 158.559 79.592C158.223 79.384 157.783 79.28 157.239 79.28C156.823 79.28 156.423 79.368 156.039 79.544C155.671 79.72 155.343 79.968 155.055 80.288C154.767 80.592 154.535 80.968 154.359 81.416C154.199 81.848 154.119 82.336 154.119 82.88C154.119 83.424 154.199 83.92 154.359 84.368C154.535 84.8 154.767 85.176 155.055 85.496C155.343 85.8 155.671 86.04 156.039 86.216C156.423 86.392 156.823 86.48 157.239 86.48C157.783 86.48 158.223 86.384 158.559 86.192C158.911 85.984 159.199 85.76 159.423 85.52C159.663 85.232 159.855 84.912 159.999 84.56H163.479C163.271 85.456 162.903 86.256 162.375 86.96C162.151 87.264 161.879 87.56 161.559 87.848C161.255 88.136 160.895 88.392 160.479 88.616C160.063 88.84 159.583 89.016 159.039 89.144C158.511 89.288 157.911 89.36 157.239 89.36ZM179.445 89.36C178.773 89.36 178.197 89.256 177.717 89.048C177.253 88.856 176.861 88.64 176.541 88.4C176.173 88.112 175.861 87.792 175.605 87.44H175.485V89H172.125V72.2H175.485V78.32H175.605C175.861 77.968 176.173 77.648 176.541 77.36C176.861 77.12 177.253 76.904 177.717 76.712C178.197 76.504 178.773 76.4 179.445 76.4C180.229 76.4 180.957 76.552 181.629 76.856C182.317 77.16 182.917 77.592 183.429 78.152C183.941 78.712 184.341 79.392 184.629 80.192C184.933 80.992 185.085 81.888 185.085 82.88C185.085 83.872 184.933 84.768 184.629 85.568C184.341 86.368 183.941 87.048 183.429 87.608C182.917 88.168 182.317 88.6 181.629 88.904C180.957 89.208 180.229 89.36 179.445 89.36ZM178.605 86.48C179.453 86.48 180.165 86.168 180.741 85.544C181.317 84.92 181.605 84.032 181.605 82.88C181.605 81.728 181.317 80.84 180.741 80.216C180.165 79.592 179.453 79.28 178.605 79.28C177.693 79.28 176.941 79.592 176.349 80.216C175.773 80.84 175.485 81.728 175.485 82.88C175.485 84.032 175.773 84.92 176.349 85.544C176.941 86.168 177.693 86.48 178.605 86.48ZM193.125 89.36C192.165 89.36 191.269 89.192 190.437 88.856C189.621 88.52 188.909 88.064 188.301 87.488C187.709 86.896 187.245 86.208 186.909 85.424C186.573 84.624 186.405 83.776 186.405 82.88C186.405 81.984 186.573 81.144 186.909 80.36C187.245 79.56 187.709 78.872 188.301 78.296C188.909 77.704 189.621 77.24 190.437 76.904C191.269 76.568 192.165 76.4 193.125 76.4C194.085 76.4 194.973 76.568 195.789 76.904C196.605 77.24 197.309 77.704 197.901 78.296C198.509 78.872 198.981 79.56 199.317 80.36C199.669 81.144 199.845 81.984 199.845 82.88C199.845 83.776 199.669 84.624 199.317 85.424C198.981 86.208 198.509 86.896 197.901 87.488C197.309 88.064 196.605 88.52 195.789 88.856C194.973 89.192 194.085 89.36 193.125 89.36ZM193.125 86.48C193.573 86.48 193.989 86.392 194.373 86.216C194.773 86.04 195.117 85.8 195.405 85.496C195.709 85.176 195.941 84.8 196.101 84.368C196.277 83.92 196.365 83.424 196.365 82.88C196.365 82.336 196.277 81.848 196.101 81.416C195.941 80.968 195.709 80.592 195.405 80.288C195.117 79.968 194.773 79.72 194.373 79.544C193.989 79.368 193.573 79.28 193.125 79.28C192.677 79.28 192.253 79.368 191.853 79.544C191.469 79.72 191.125 79.968 190.821 80.288C190.533 80.592 190.301 80.968 190.125 81.416C189.965 81.848 189.885 82.336 189.885 82.88C189.885 83.424 189.965 83.92 190.125 84.368C190.301 84.8 190.533 85.176 190.821 85.496C191.125 85.8 191.469 86.04 191.853 86.216C192.253 86.392 192.677 86.48 193.125 86.48ZM207.773 89.36C206.813 89.36 205.917 89.192 205.085 88.856C204.269 88.52 203.557 88.064 202.949 87.488C202.357 86.896 201.893 86.208 201.557 85.424C201.221 84.624 201.053 83.776 201.053 82.88C201.053 81.984 201.221 81.144 201.557 80.36C201.893 79.56 202.357 78.872 202.949 78.296C203.557 77.704 204.269 77.24 205.085 76.904C205.917 76.568 206.813 76.4 207.773 76.4C208.733 76.4 209.621 76.568 210.437 76.904C211.253 77.24 211.957 77.704 212.549 78.296C213.157 78.872 213.629 79.56 213.965 80.36C214.317 81.144 214.493 81.984 214.493 82.88C214.493 83.776 214.317 84.624 213.965 85.424C213.629 86.208 213.157 86.896 212.549 87.488C211.957 88.064 211.253 88.52 210.437 88.856C209.621 89.192 208.733 89.36 207.773 89.36ZM207.773 86.48C208.221 86.48 208.637 86.392 209.021 86.216C209.421 86.04 209.765 85.8 210.053 85.496C210.357 85.176 210.589 84.8 210.749 84.368C210.925 83.92 211.013 83.424 211.013 82.88C211.013 82.336 210.925 81.848 210.749 81.416C210.589 80.968 210.357 80.592 210.053 80.288C209.765 79.968 209.421 79.72 209.021 79.544C208.637 79.368 208.221 79.28 207.773 79.28C207.325 79.28 206.901 79.368 206.501 79.544C206.117 79.72 205.773 79.968 205.469 80.288C205.181 80.592 204.949 80.968 204.773 81.416C204.613 81.848 204.533 82.336 204.533 82.88C204.533 83.424 204.613 83.92 204.773 84.368C204.949 84.8 205.181 85.176 205.469 85.496C205.773 85.8 206.117 86.04 206.501 86.216C206.901 86.392 207.325 86.48 207.773 86.48ZM221.702 89.36C221.046 89.36 220.454 89.296 219.926 89.168C219.398 89.056 218.926 88.896 218.51 88.688C218.11 88.48 217.75 88.248 217.43 87.992C217.126 87.736 216.87 87.472 216.662 87.2C216.15 86.56 215.79 85.84 215.582 85.04H219.062C219.19 85.344 219.366 85.608 219.59 85.832C219.782 86.024 220.046 86.2 220.382 86.36C220.718 86.52 221.158 86.6 221.702 86.6C222.486 86.6 223.022 86.496 223.31 86.288C223.598 86.064 223.742 85.768 223.742 85.4C223.742 85.08 223.55 84.84 223.166 84.68C222.798 84.52 222.334 84.376 221.774 84.248C221.214 84.12 220.606 83.984 219.95 83.84C219.31 83.696 218.71 83.48 218.15 83.192C217.59 82.904 217.118 82.52 216.734 82.04C216.366 81.56 216.182 80.92 216.182 80.12C216.182 79.64 216.294 79.176 216.518 78.728C216.742 78.28 217.07 77.888 217.502 77.552C217.934 77.2 218.47 76.92 219.11 76.712C219.75 76.504 220.494 76.4 221.342 76.4C221.982 76.4 222.558 76.456 223.07 76.568C223.582 76.68 224.03 76.832 224.414 77.024C224.814 77.216 225.158 77.432 225.446 77.672C225.734 77.912 225.974 78.152 226.166 78.392C226.63 78.968 226.942 79.624 227.102 80.36H223.742C223.646 80.136 223.502 79.936 223.31 79.76C223.134 79.616 222.886 79.48 222.566 79.352C222.262 79.224 221.854 79.16 221.342 79.16C220.734 79.16 220.302 79.264 220.046 79.472C219.79 79.664 219.662 79.88 219.662 80.12C219.662 80.44 219.846 80.68 220.214 80.84C220.598 81 221.07 81.144 221.63 81.272C222.19 81.4 222.79 81.536 223.43 81.68C224.086 81.824 224.694 82.04 225.254 82.328C225.814 82.616 226.278 83 226.646 83.48C227.03 83.96 227.222 84.6 227.222 85.4C227.222 85.912 227.102 86.408 226.862 86.888C226.622 87.352 226.27 87.768 225.806 88.136C225.342 88.504 224.766 88.8 224.078 89.024C223.39 89.248 222.598 89.36 221.702 89.36ZM229.748 79.64H228.188V76.76H229.748V74.12H233.108V76.76H236.588V79.64H233.108V86.12H236.708V89H229.748V79.64ZM244.497 89.36C243.569 89.36 242.697 89.192 241.881 88.856C241.081 88.52 240.385 88.064 239.793 87.488C239.201 86.896 238.737 86.208 238.401 85.424C238.065 84.624 237.897 83.776 237.897 82.88C237.897 81.984 238.065 81.144 238.401 80.36C238.737 79.56 239.201 78.872 239.793 78.296C240.385 77.704 241.081 77.24 241.881 76.904C242.697 76.568 243.569 76.4 244.497 76.4C245.457 76.4 246.329 76.568 247.113 76.904C247.913 77.24 248.601 77.704 249.177 78.296C249.753 78.888 250.193 79.576 250.497 80.36C250.817 81.144 250.977 81.984 250.977 82.88V83.6H241.377C241.441 83.984 241.561 84.352 241.737 84.704C241.929 85.056 242.161 85.368 242.433 85.64C242.721 85.896 243.041 86.104 243.393 86.264C243.745 86.408 244.113 86.48 244.497 86.48C245.041 86.48 245.481 86.408 245.817 86.264C246.169 86.104 246.457 85.936 246.681 85.76C246.921 85.552 247.113 85.312 247.257 85.04H250.857C250.601 85.84 250.201 86.56 249.657 87.2C249.417 87.472 249.137 87.736 248.817 87.992C248.497 88.248 248.129 88.48 247.713 88.688C247.297 88.896 246.817 89.056 246.273 89.168C245.745 89.296 245.153 89.36 244.497 89.36ZM247.377 81.56C247.313 81.256 247.201 80.968 247.041 80.696C246.881 80.424 246.673 80.184 246.417 79.976C246.177 79.768 245.889 79.6 245.553 79.472C245.233 79.344 244.881 79.28 244.497 79.28C243.713 79.28 243.057 79.512 242.529 79.976C242.017 80.424 241.673 80.952 241.497 81.56H247.377ZM253.008 76.76H256.368V78.56H256.488C256.632 78.176 256.848 77.84 257.136 77.552C257.376 77.296 257.696 77.064 258.096 76.856C258.496 76.632 259 76.52 259.608 76.52H261.048V79.76H259.248C258.336 79.76 257.624 80.008 257.112 80.504C256.616 81 256.368 81.672 256.368 82.52V89H253.008V76.76Z" fill="white"/>
<path d="M89.56 142.2H93.16V148.8H95.56L100.12 142.2H104.2L98.68 150.24L104.56 159H100.36L95.68 152.16H93.16V159H89.56V142.2ZM111.023 159.36C110.063 159.36 109.167 159.192 108.335 158.856C107.519 158.52 106.807 158.064 106.199 157.488C105.607 156.896 105.143 156.208 104.807 155.424C104.471 154.624 104.303 153.776 104.303 152.88C104.303 151.984 104.471 151.144 104.807 150.36C105.143 149.56 105.607 148.872 106.199 148.296C106.807 147.704 107.519 147.24 108.335 146.904C109.167 146.568 110.063 146.4 111.023 146.4C111.983 146.4 112.871 146.568 113.687 146.904C114.503 147.24 115.207 147.704 115.799 148.296C116.407 148.872 116.879 149.56 117.215 150.36C117.567 151.144 117.743 151.984 117.743 152.88C117.743 153.776 117.567 154.624 117.215 155.424C116.879 156.208 116.407 156.896 115.799 157.488C115.207 158.064 114.503 158.52 113.687 158.856C112.871 159.192 111.983 159.36 111.023 159.36ZM111.023 156.48C111.471 156.48 111.887 156.392 112.271 156.216C112.671 156.04 113.015 155.8 113.303 155.496C113.607 155.176 113.839 154.8 113.999 154.368C114.175 153.92 114.263 153.424 114.263 152.88C114.263 152.336 114.175 151.848 113.999 151.416C113.839 150.968 113.607 150.592 113.303 150.288C113.015 149.968 112.671 149.72 112.271 149.544C111.887 149.368 111.471 149.28 111.023 149.28C110.575 149.28 110.151 149.368 109.751 149.544C109.367 149.72 109.023 149.968 108.719 150.288C108.431 150.592 108.199 150.968 108.023 151.416C107.863 151.848 107.783 152.336 107.783 152.88C107.783 153.424 107.863 153.92 108.023 154.368C108.199 154.8 108.431 155.176 108.719 155.496C109.023 155.8 109.367 156.04 109.751 156.216C110.151 156.392 110.575 156.48 111.023 156.48ZM119.672 146.76H124.232L127.112 153.36H127.472L130.352 146.76H134.912V159H131.552V152.88L131.672 150.72H131.552L128.912 156.72H125.672L123.032 150.72H122.912L123.032 152.88V159H119.672V146.76ZM137.554 146.76H140.914V150.6H143.674C144.426 150.6 145.106 150.712 145.714 150.936C146.322 151.16 146.834 151.464 147.25 151.848C147.682 152.232 148.01 152.68 148.234 153.192C148.474 153.688 148.594 154.224 148.594 154.8C148.594 155.376 148.474 155.92 148.234 156.432C148.01 156.928 147.682 157.368 147.25 157.752C146.834 158.136 146.322 158.44 145.714 158.664C145.106 158.888 144.426 159 143.674 159H137.554V146.76ZM143.434 156.24C143.978 156.24 144.394 156.104 144.682 155.832C144.97 155.56 145.114 155.216 145.114 154.8C145.114 154.384 144.97 154.04 144.682 153.768C144.394 153.496 143.978 153.36 143.434 153.36H140.914V156.24H143.434ZM161.318 159.36C160.47 159.36 159.694 159.224 158.99 158.952C158.286 158.664 157.654 158.288 157.094 157.824C156.55 157.344 156.094 156.792 155.726 156.168C155.358 155.544 155.102 154.888 154.958 154.2H153.758V159H150.398V146.76H153.758V151.56H154.958C155.102 150.872 155.358 150.216 155.726 149.592C156.094 148.968 156.55 148.424 157.094 147.96C157.654 147.48 158.286 147.104 158.99 146.832C159.694 146.544 160.47 146.4 161.318 146.4C162.214 146.4 163.054 146.568 163.838 146.904C164.638 147.24 165.326 147.704 165.902 148.296C166.494 148.872 166.958 149.56 167.294 150.36C167.63 151.144 167.798 151.984 167.798 152.88C167.798 153.776 167.63 154.624 167.294 155.424C166.958 156.208 166.494 156.896 165.902 157.488C165.326 158.064 164.638 158.52 163.838 158.856C163.054 159.192 162.214 159.36 161.318 159.36ZM161.318 156.48C162.166 156.48 162.878 156.168 163.454 155.544C164.03 154.92 164.318 154.032 164.318 152.88C164.318 151.728 164.03 150.84 163.454 150.216C162.878 149.592 162.166 149.28 161.318 149.28C160.47 149.28 159.758 149.592 159.182 150.216C158.606 150.84 158.318 151.728 158.318 152.88C158.318 154.032 158.606 154.92 159.182 155.544C159.758 156.168 160.47 156.48 161.318 156.48ZM169.711 146.76H173.071V151.32H178.231V146.76H181.591V159H178.231V154.2H173.071V159H169.711V146.76ZM184.242 146.76H187.602V152.04L187.482 154.2H187.722L192.642 146.76H196.242V159H192.882V153.72L193.002 151.56H192.762L187.842 159H184.242V146.76ZM201.77 149.64H197.69V146.76H209.21V149.64H205.13V159H201.77V149.64ZM210.656 146.76H214.016V152.04L213.896 154.2H214.136L219.056 146.76H222.656V159H219.296V153.72L219.416 151.56H219.176L214.256 159H210.656V146.76Z" fill="white"/>
<rect width="293" height="3" transform="translate(78 34)" fill="url(#paint0_linear_301_460)"/>
<rect width="293" height="3" transform="translate(78 104)" fill="url(#paint1_linear_301_460)"/>
<rect width="293" height="3" transform="translate(78 174)" fill="url(#paint2_linear_301_460)"/>
<path d="M294 94L286.188 82.2811H290.397V74H297.604V82.2811H301.813L294 94Z" fill="white"/>
<path d="M294 22L286.188 10.2811H290.397V2H297.604V10.2811H301.813L294 22Z" fill="white"/>
<path d="M48 151C-12.6294 125.653 -16.6714 43.5102 48 13" stroke="white" stroke-dasharray="4 4"/>
<path d="M58 151L69.7189 143.188L69.7188 147.397L78 147.397L78 154.604L69.7188 154.604L69.7188 158.813L58 151Z" fill="white"/>
<path d="M78 12L66.2811 4.1875L66.2812 8.3966L58 8.3966L58 15.6036L66.2812 15.6036L66.2812 19.8127L78 12Z" fill="white"/>
<defs>
<linearGradient id="paint0_linear_301_460" x1="-193.38" y1="-0.8" x2="-193.341" y2="-4.87108" gradientUnits="userSpaceOnUse">
<stop stop-color="#B331FF"/>
<stop offset="1" stop-color="#FFF700"/>
</linearGradient>
<linearGradient id="paint1_linear_301_460" x1="-193.38" y1="-0.8" x2="-193.341" y2="-4.87108" gradientUnits="userSpaceOnUse">
<stop stop-color="#B331FF"/>
<stop offset="1" stop-color="#FFF700"/>
</linearGradient>
<linearGradient id="paint2_linear_301_460" x1="-193.38" y1="-0.8" x2="-193.341" y2="-4.87108" gradientUnits="userSpaceOnUse">
<stop stop-color="#B331FF"/>
<stop offset="1" stop-color="#FFF700"/>
</linearGradient>
</defs>
</svg>
