<svg width="20" height="20" viewBox="0 0 20 20" fill="none" xmlns="http://www.w3.org/2000/svg">
<g clip-path="url(#clip0_131_801)">
<path d="M16.6667 6.66667H14.4445V7.77778H16.6667V8.88889H17.7778V7.77778C17.7778 7.4831 17.6607 7.20048 17.4524 6.99211C17.244 6.78374 16.9614 6.66667 16.6667 6.66667Z" fill="white"/>
<path d="M16.6666 10H17.7777V13.3333H16.6666V10Z" fill="white"/>
<path d="M16.6667 16.6667H15.5555V17.7778H16.6667C16.9613 17.7778 17.244 17.6607 17.4523 17.4523C17.6607 17.244 17.7778 16.9613 17.7778 16.6667V14.4444H16.6667V16.6667Z" fill="white"/>
<path d="M12.2222 2.22223H3.33328C2.71963 2.22223 2.22217 2.71969 2.22217 3.33334V12.2222C2.22217 12.8359 2.71963 13.3333 3.33328 13.3333H12.2222C12.8358 13.3333 13.3333 12.8359 13.3333 12.2222V3.33334C13.3333 2.71969 12.8358 2.22223 12.2222 2.22223Z" fill="white"/>
<path d="M11.1111 16.6667H14.4444V17.7778H11.1111V16.6667Z" fill="white"/>
<path d="M7.77774 14.4444H6.66663V16.6667C6.66663 16.9613 6.78369 17.244 6.99206 17.4523C7.20044 17.6607 7.48305 17.7778 7.77774 17.7778H9.99996V16.6667H7.77774V14.4444Z" fill="white"/>
</g>
<defs>
<clipPath id="clip0_131_801">
<rect width="20" height="20" fill="white"/>
</clipPath>
</defs>
</svg>
