<svg width="24" height="24" viewBox="0 0 24 24" fill="none" xmlns="http://www.w3.org/2000/svg">
<path fill-rule="evenodd" clip-rule="evenodd" d="M12 1.485C11.342 1.485 10.77 1.906 9.62695 2.749L7.90595 4.018C7.72595 4.151 7.63595 4.217 7.53895 4.273C7.44195 4.329 7.33895 4.373 7.13395 4.463L5.17495 5.319C3.87295 5.889 3.22195 6.173 2.89295 6.742C2.56495 7.312 2.64295 8.018 2.80195 9.43L3.03995 11.555C3.06495 11.777 3.07695 11.888 3.07695 12C3.07695 12.112 3.06495 12.223 3.03995 12.445L2.80195 14.57C2.64395 15.982 2.56495 16.688 2.89295 17.258C3.22295 17.828 3.87295 18.112 5.17495 18.681L7.13495 19.537C7.33895 19.627 7.44195 19.671 7.53895 19.727C7.63495 19.783 7.72595 19.849 7.90595 19.982L9.62595 21.251C10.771 22.094 11.343 22.515 12 22.515C12.657 22.515 13.23 22.094 14.373 21.251L16.094 19.982C16.274 19.849 16.364 19.783 16.461 19.727C16.558 19.671 16.661 19.627 16.866 19.537L18.825 18.681C20.127 18.111 20.778 17.827 21.107 17.258C21.435 16.688 21.357 15.982 21.197 14.57L20.96 12.445C20.935 12.223 20.922 12.112 20.922 12C20.922 11.888 20.935 11.777 20.96 11.555L21.198 9.43C21.356 8.018 21.435 7.312 21.107 6.742C20.777 6.172 20.127 5.888 18.825 5.319L16.865 4.463C16.727 4.407 16.5921 4.34357 16.461 4.273C16.3341 4.19468 16.2116 4.10956 16.094 4.018L14.374 2.749C13.228 1.906 12.656 1.485 12 1.485ZM12 16C13.0608 16 14.0782 15.5786 14.8284 14.8284C15.5785 14.0783 16 13.0609 16 12C16 10.9391 15.5785 9.92172 14.8284 9.17157C14.0782 8.42143 13.0608 8 12 8C10.9391 8 9.92167 8.42143 9.17153 9.17157C8.42138 9.92172 7.99995 10.9391 7.99995 12C7.99995 13.0609 8.42138 14.0783 9.17153 14.8284C9.92167 15.5786 10.9391 16 12 16Z" fill="white"/>
</svg>
