<svg width="15" height="16" viewBox="0 0 15 16" fill="none" xmlns="http://www.w3.org/2000/svg">
<g clip-path="url(#clip0_628_1155)">
<path fill-rule="evenodd" clip-rule="evenodd" d="M7.08231 13.0026L3.741 15.0495C3.39356 15.2623 2.93937 15.1532 2.72653 14.8058C2.62258 14.636 2.59159 14.4316 2.64058 14.2387L3.15782 12.2029C3.34453 11.4679 3.84743 10.8536 4.53098 10.5254L8.17619 8.77531C8.34613 8.69372 8.41776 8.48982 8.33617 8.31988C8.27009 8.18225 8.12066 8.10523 7.97023 8.13128L3.91265 8.83374C3.08784 8.97654 2.242 8.74877 1.60041 8.21112L0.318591 7.13691C0.00630629 6.87521 -0.034698 6.40989 0.227006 6.09762C0.35429 5.94572 0.537325 5.85143 0.734889 5.83597L4.65124 5.52948C4.92792 5.50782 5.16904 5.33273 5.27526 5.07634L6.78612 1.42922C6.94205 1.0528 7.37362 0.874057 7.75004 1.02999C7.93078 1.10487 8.07439 1.24847 8.14927 1.42922L9.66012 5.07634C9.76633 5.33273 10.0075 5.50782 10.2841 5.52948L14.2221 5.83766C14.6282 5.86945 14.9317 6.22451 14.8999 6.63071C14.8847 6.82612 14.7922 7.00741 14.6431 7.13457L11.6399 9.69491C11.4283 9.87515 11.3362 10.1589 11.4011 10.429L12.3245 14.2645C12.4198 14.6607 12.176 15.0591 11.7799 15.1544C11.5895 15.2003 11.3888 15.1685 11.2218 15.0662L7.85307 13.0026C7.61657 12.8577 7.3188 12.8577 7.08231 13.0026Z" fill="#FFF200"/>
</g>
<defs>
<clipPath id="clip0_628_1155">
<rect width="14.9333" height="16" fill="white"/>
</clipPath>
</defs>
</svg>
